{
	"asset": {
		"generator": "Blocks",
		"version": "1.0.2",
		"copyright": "Unknown"
	},
	"buffers": {
		"model": {
			"byteLength": 30384,
			"type": "arraybuffer",
			"uri": "model.bin"
		}
	},
	"accessors": {
		"accessor_position_m0-PolyPaper11_-26398": {
			"bufferView": "vec3BufferView",
			"byteOffset": 0,
			"byteStride": 12,
			"componentType": 5126,
			"count": 720,
			"max": [ -0.06873001, 2.076166, -1.108071 ],
			"min": [ -1.558055, -0.5099916, -2.567813 ],
			"type": "VEC3"
		 },
		"accessor_normal_m0-PolyPaper11_-26398": {
			"bufferView": "vec3BufferView",
			"byteOffset": 8640,
			"byteStride": 12,
			"componentType": 5126,
			"count": 720,
			"max": [ 0.998135, 1, 0.9994884 ],
			"min": [ -0.9794602, -1, -0.9938315 ],
			"type": "VEC3"
		 },
		"accessor_color_m0-PolyPaper11_-26398": {
			"bufferView": "vec4BufferView",
			"byteOffset": 0,
			"byteStride": 16,
			"componentType": 5126,
			"count": 720,
			"max": [ 0.4745098, 0.5882353, 0.5333334, 1 ],
			"min": [ 0, 0.3333333, 0.282353, 1 ],
			"type": "VEC4"
		 },
		"accessor_indices_0_m0-PolyPaper11_-26398": {
			"bufferView": "ushortBufferView",
			"byteOffset": 0,
			"byteStride": 0,
			"componentType": 5123,
			"count": 792,
			"max": [ 719 ],
			"min": [ 0 ],
			"type": "SCALAR"
		 }
	},
	"bufferViews": {
		"ushortBufferView": {
			"buffer": "model",
			"byteLength": 1584,
			"byteOffset": 0,
			"target": 34963
		},
		"vec3BufferView": {
			"buffer": "model",
			"byteLength": 17280,
			"byteOffset": 1584,
			"target": 34962
		},
		"vec4BufferView": {
			"buffer": "model",
			"byteLength": 11520,
			"byteOffset": 18864,
			"target": 34962
		}
	},
	"meshes": {
		"mesh_m0-PolyPaper11_-26398": {
			"name": "mesh_m0-PolyPaper11_-26398",
			"primitives": [
				{
					"attributes": {
						"POSITION": "accessor_position_m0-PolyPaper11_-26398",
						"NORMAL": "accessor_normal_m0-PolyPaper11_-26398",
						"COLOR": "accessor_color_m0-PolyPaper11_-26398"
					},
					"indices": "accessor_indices_0_m0-PolyPaper11_-26398",
					"material": "material_mat11",
					"mode": 4
				}
			]
		}
	},
	"shaders": {
		"vertex_mat11": {
			"type": 35633,
			"uri": "https://vr.google.com/shaders/w/vs.glsl"
		},
		"fragment_mat11": {
			"type": 35632,
			"uri": "https://vr.google.com/shaders/w/fs.glsl"
		}
	},
	"programs": {
		"program_mat11": {
			"attributes": [
				"a_position",
				"a_normal",
				"a_color"				
			],
			"vertexShader": "vertex_mat11",
			"fragmentShader": "fragment_mat11"
		}
	},
	"techniques": {
		"technique_mat11": {
			"program": "program_mat11",
			"extras": {"gvrss" : "https://vr.google.com/shaders/w/gvrss/paper.json"},
			"parameters": {
				"position": {
					"type": 35665,
					"semantic": "POSITION"
				},
				"normal": {
					"type": 35665,
					"semantic": "NORMAL"
				},
				"color": {
					"type": 35666,
					"semantic": "COLOR"
				},
				"modelViewMatrix": {
					"type": 35676,
					"semantic": "MODELVIEW"
				},
				"projectionMatrix": {
					"type": 35676,
					"semantic": "PROJECTION"
				},
				"normalMatrix": {
					"type": 35675,
					"semantic": "MODELVIEWINVERSETRANSPOSE"
				},
				"color": {
					"type": 35666
				},
				"roughness": {
					"type": 5126
				},
				"metallic": {
					"type": 5126
				},
				"light0Pos": {
					"type": 35666
				},
				"light0Color": {
					"type": 35666
				},
				"light1Pos": {
					"type": 35666
				},
				"light1Color": {
					"type": 35666
				}				
			},
			"attributes": {
				"a_position": "position",
				"a_normal": "normal",
				"a_color": "color"				
			},
			"uniforms": {
				"u_modelViewMatrix": "modelViewMatrix",
				"u_projectionMatrix": "projectionMatrix",
				"u_normalMatrix": "normalMatrix",
				"u_color": "color",
				"u_roughness": "roughness",
				"u_metallic": "metallic",
				"u_light0Pos": "light0Pos",
				"u_light0Color": "light0Color",
				"u_light1Pos": "light1Pos",
				"u_light1Color": "light1Color"				
			},
			"states": {
				"enable": [
					2929,
					2884
				],
				"functions": {
					"cullFace": [1029]
				}
			}
		}
	},
	"materials": {
		"material_mat11": {
			"technique": "technique_mat11",
			"values": {
				"color": [0, 0.5882353, 0.5333334, 1],
				"roughness": 0.72,
				"metallic": 0,
				"light0Pos": [-0.02, 4.11, -0.54, 0],
				"light0Color": [0.8, 0.8, 0.8, 0],
				"light1Pos": [0.02, -4.11, 0.54, 0],
				"light1Color": [0.64, 0.5647059, 0.5647059, 0]				
			},
			"name": "material_mat11"
		}
	},
	"nodes": {
		"node_MeshObject-1892698176-PolyPaper11": {
			"name": "node_MeshObject-1892698176-PolyPaper11",
			"meshes": [
				"mesh_m0-PolyPaper11_-26398"
			],
			"matrix": [1, 0, 0, 0, 0, 1, 0, 0, 0, 0, 1, 0, 0, 0, 0, 1]
		}
	},
	"scene": "defaultScene",
	"scenes": {
		"defaultScene": {
			"nodes": [
				"node_MeshObject-1892698176-PolyPaper11"
			],
			"extras": {

			}
		}
	}
}