M48
;Layer_Color=9474304
;FILE_FORMAT=2:5
INCH,LZ
;TYPE=PLATED
T1F00S00C0.03150
%
T01
X01025Y01125
Y01225
Y01325
Y01425
Y01525
X01125Y01425
X01225
X01325
X01425
X01525
Y01075
X01425
X0125
X0115
X017
X018
X01925Y01125
Y01225
Y01325
Y01425
Y01525
X01825Y01425
X01725
X01625
Y01825
X01725
X01825
X01925
Y01725
Y01625
X01525Y01825
X01425
X01325
X01225
X01125
X01025
Y01725
Y01625
M30
